<svg version="1.1" id="Layer_1" xmlns="http://www.w3.org/2000/svg" xmlns:xlink="http://www.w3.org/1999/xlink" x="0px" y="0px"
	 width="100%" viewBox="0 0 391 391" enable-background="new 0 0 391 391" xml:space="preserve">
<path fill="#FFFFFF" opacity="1.000000" stroke="none" 
	d="
M222.000000,392.000000 
	C148.000015,392.000000 74.500023,392.000000 1.000030,392.000000 
	C1.000020,261.666718 1.000020,131.333405 1.000010,1.000082 
	C131.333267,1.000055 261.666534,1.000055 391.999878,1.000027 
	C391.999908,131.333252 391.999908,261.666504 391.999939,391.999878 
	C335.500000,392.000000 279.000000,392.000000 222.000000,392.000000 
M295.999939,294.000000 
	C295.999939,294.000000 295.955444,293.966553 296.445496,293.810516 
	C296.619995,293.526703 296.794495,293.242889 296.998657,293.001129 
	C296.998657,293.001129 296.962708,292.962585 297.724091,292.996002 
	C298.798828,291.643982 299.873566,290.291931 301.000000,288.999390 
	C301.000000,288.999390 300.939331,288.949127 301.644409,288.939789 
	C304.110138,285.650482 306.575897,282.361176 309.002716,279.012573 
	C309.002716,279.012573 309.072327,279.026184 309.517975,278.800720 
	C309.796295,278.574768 309.936401,278.282532 309.978851,278.007751 
	C309.978851,278.007751 309.921936,277.931946 310.630859,277.917480 
	C315.373535,271.882172 320.548004,266.125092 324.687469,259.701080 
	C326.959412,256.175232 327.357635,251.478821 328.823975,247.390259 
	C333.569092,234.159286 338.090546,220.898773 338.050079,206.578796 
	C338.046082,205.169876 338.892883,203.778275 339.058990,202.345505 
	C339.580231,197.850052 340.401733,193.325272 340.263123,188.837906 
	C340.153778,185.298218 338.652405,181.822586 338.027649,178.273026 
	C336.976440,172.300659 336.929779,166.024338 335.030426,160.354996 
	C331.145966,148.760300 326.714050,137.302200 321.683197,126.160065 
	C319.492493,121.308174 315.270233,117.373596 312.000000,112.999718 
	C312.000000,112.999718 311.975677,113.027328 312.015015,112.284874 
	C311.482880,111.107498 311.167053,109.755981 310.382660,108.781685 
	C306.040466,103.388138 301.846893,97.833580 297.057312,92.858971 
	C294.629791,90.337662 291.056183,88.919823 288.000000,87.000282 
	C288.000000,87.000282 287.996796,87.000145 287.953613,86.304337 
	C285.517212,83.887680 282.653717,81.762665 280.753387,78.979919 
	C278.422455,75.566589 275.559479,74.610710 271.255768,75.019119 
	C270.827148,74.689529 270.398499,74.359940 269.922180,73.307922 
	C265.289154,70.130981 260.656097,66.954048 255.838715,63.650700 
	C255.885254,63.219440 256.011810,62.046432 256.138336,60.873421 
	C255.001694,61.009285 253.865326,61.147495 252.728348,61.280453 
	C251.130630,61.467289 249.414993,62.120392 247.954330,61.755413 
	C240.684082,59.938766 233.569702,57.392372 226.231613,55.980083 
	C217.060989,54.215103 207.725479,52.302845 198.461670,52.305378 
	C188.997375,52.307968 179.559052,55.261749 170.062119,55.600906 
	C161.765945,55.897182 154.728699,59.403294 147.247467,61.883423 
	C146.368958,62.174667 145.768951,63.306011 145.000000,64.002823 
	C145.000000,64.002823 145.039764,64.043808 144.236008,63.982239 
	C141.503006,65.340973 138.770004,66.699707 135.999557,68.000870 
	C135.999557,68.000870 136.046326,68.050873 135.276184,67.988182 
	C133.273712,68.413399 131.271225,68.838608 128.801941,69.362938 
	C129.319092,68.016968 129.652664,67.148811 129.986237,66.280655 
	C129.786591,66.168213 129.586960,66.055771 129.387329,65.943336 
	C126.205276,69.569389 123.023232,73.195442 119.142822,76.948189 
	C117.040077,78.583496 114.937340,80.218811 112.455231,82.123817 
	C112.214203,82.324951 112.011688,82.559357 111.178177,82.918999 
	C110.401405,83.562302 109.624641,84.205597 108.129921,84.951271 
	C107.423714,85.971924 106.717506,86.992584 106.000000,88.000000 
	C106.000000,88.000000 106.013168,88.011124 105.275673,87.991547 
	C101.772705,89.941978 97.150414,90.775276 97.062904,96.612152 
	C97.062904,96.612152 97.083725,97.048569 97.009720,97.010353 
	C97.009720,97.010353 97.048096,97.084274 96.617645,97.053688 
	C96.617645,97.053688 96.186943,97.080605 95.634048,97.222954 
	C95.447601,97.539062 95.261154,97.855179 94.939308,98.595375 
	C94.786819,98.869049 94.561195,99.053024 93.576241,99.082153 
	C92.715424,99.723106 91.854607,100.364067 90.299759,100.935043 
	C86.232086,100.237724 81.481087,105.474442 82.264740,110.597275 
	C82.336990,110.917305 82.581924,111.403809 82.456818,111.533577 
	C74.372307,119.919441 69.768593,130.528076 65.635132,140.963013 
	C61.516598,151.360275 59.799530,162.706772 56.994652,173.628113 
	C56.437325,175.798187 55.150032,177.935501 55.179165,180.074554 
	C55.302258,189.112045 55.731464,198.148087 56.238243,207.174026 
	C56.298740,208.251434 57.519081,209.263748 58.201809,210.306229 
	C58.485634,209.794739 58.769459,209.283249 59.368179,208.748001 
	C59.368179,208.748001 59.681438,208.787888 60.375515,208.587204 
	C62.219982,203.361954 64.064445,198.136703 65.926270,193.002594 
	C65.926270,193.002594 65.889610,192.912842 66.621735,192.907883 
	C68.077927,190.604431 69.534119,188.300980 71.701927,186.129395 
	C72.540466,187.401489 73.379013,188.673599 74.266205,190.019501 
	C77.220932,189.102646 79.308212,188.212387 76.537369,184.929535 
	C75.664185,183.894974 75.469894,182.287415 74.988106,180.222351 
	C76.707657,176.867371 78.427208,173.512405 80.878616,170.023010 
	C84.185036,169.757248 84.053246,167.354263 84.000000,165.000000 
	C84.000000,165.000000 84.000572,165.000534 84.470291,164.796616 
	C84.629021,164.504044 84.787750,164.211456 84.979057,164.005249 
	C84.979057,164.005249 84.922989,163.931488 85.696411,163.975372 
	C86.432526,162.925629 87.168640,161.875885 88.078354,160.412949 
	C88.248161,160.148315 88.484795,159.974854 89.538025,159.920547 
	C92.682320,158.520172 95.884636,157.173080 95.967888,152.974854 
	C95.967888,152.974854 95.942032,152.964600 96.439941,152.789062 
	C96.614151,152.493835 96.788368,152.198593 97.032341,151.473038 
	C97.032341,151.473038 97.061958,151.038086 97.004776,151.000275 
	C97.004776,151.000275 97.036018,151.061264 97.522446,151.067123 
	C97.522446,151.067123 98.005241,151.006897 98.731667,151.013535 
	C99.438080,150.285309 100.144493,149.557068 100.877563,148.820297 
	C100.877563,148.820297 100.843849,148.798340 101.588333,148.909912 
	C104.721436,147.255692 107.854546,145.601471 111.443047,144.510696 
	C112.856850,144.386765 114.466034,144.656525 115.649780,144.069046 
	C120.169777,141.825867 124.493301,139.192886 129.573364,142.848633 
	C130.175583,143.281998 131.581116,142.599045 132.614273,142.433563 
	C131.485321,140.509766 130.028229,139.776382 128.594727,138.999496 
	C127.370529,138.336044 126.173439,137.622604 125.281013,136.352570 
	C126.157707,135.196793 127.034409,134.041000 128.006516,132.936157 
	C128.006516,132.936157 127.899704,132.919586 128.369415,132.860458 
	C128.676407,132.729187 128.891129,132.508270 129.431778,131.992172 
	C129.431778,131.992172 129.894913,131.940964 130.730804,132.004486 
	C134.832748,130.409256 138.934692,128.814026 143.656815,127.019348 
	C144.087036,126.964775 144.517242,126.910202 145.325089,127.462257 
	C147.301682,127.616257 149.324387,128.108109 151.244202,127.846130 
	C154.223755,127.439529 157.133224,126.519417 161.183243,125.551521 
	C161.237457,125.480179 162.120224,124.318398 163.647247,122.984573 
	C164.089783,122.980400 164.532318,122.976234 165.470306,123.549095 
	C166.944443,124.105850 168.384857,124.791855 169.901077,125.187248 
	C171.881439,125.703690 173.979309,126.491325 175.923965,126.268051 
	C179.630081,125.842537 183.259506,124.114441 186.927658,124.092789 
	C218.073349,123.908958 249.220566,123.987846 280.367340,123.988159 
	C288.865662,123.988243 288.686584,123.949760 286.910919,132.143570 
	C286.149048,135.659485 286.305878,139.374481 286.054810,143.663254 
	C285.935272,144.087311 285.815765,144.511368 284.947021,145.000778 
	C281.672821,148.583740 281.232758,152.623047 283.050964,157.757095 
	C282.929138,158.482773 282.807312,159.208435 281.793762,159.967209 
	C267.847260,159.982605 253.900024,159.935654 239.955200,160.096237 
	C238.303909,160.115234 236.665680,161.270172 234.651489,162.161758 
	C234.361664,162.309723 234.182053,162.542664 234.244232,163.380676 
	C234.544144,163.553726 234.844070,163.726776 235.025238,163.894958 
	C235.025238,163.894958 235.133072,163.844986 235.093430,164.592667 
	C236.810577,165.683472 238.527725,166.774277 240.653641,168.063751 
	C240.883606,168.280457 241.021698,168.545090 241.212830,169.370529 
	C241.496109,169.568909 241.779373,169.767288 241.997391,169.990829 
	C241.997391,169.990829 242.046844,169.941223 242.015396,170.697739 
	C243.092621,175.005371 243.506821,179.634323 247.796692,182.366638 
	C248.184311,182.613510 248.569122,183.127548 248.640793,183.568604 
	C249.900146,191.318939 253.602722,198.716125 251.302002,206.986511 
	C250.261215,210.727814 250.589890,214.827988 249.923172,218.700943 
	C249.045013,223.802307 247.969406,228.884796 246.664169,233.893433 
	C245.261841,239.274689 243.495209,244.560989 241.206375,250.052429 
	C235.294022,252.911179 236.719193,259.145569 234.204102,264.055908 
	C228.722198,270.546021 223.133774,276.950714 217.820221,283.575897 
	C216.121490,285.693939 215.150955,288.395996 213.143524,290.942322 
	C212.427109,290.963593 211.710678,290.984863 210.921173,290.441162 
	C210.620712,290.118591 210.320251,289.795990 210.019791,289.473419 
	C209.840240,289.681091 209.660690,289.888763 209.481125,290.096436 
	C209.989487,290.395691 210.497833,290.694946 210.997574,291.706573 
	C210.930542,292.411804 210.863510,293.117004 210.059769,293.910461 
	C207.910065,293.267212 205.760361,292.623962 202.479294,291.642181 
	C203.714554,294.339539 204.341278,295.708069 205.192810,297.567474 
	C196.266129,302.731262 187.560715,307.767090 179.467392,312.448822 
	C177.120895,311.887024 175.419617,311.479706 173.718353,311.072388 
	C173.598129,311.406097 173.477921,311.739807 173.357697,312.073517 
	C174.136185,312.699738 174.914658,313.325958 175.670822,313.934204 
	C170.954407,318.215179 166.216766,317.396393 162.119049,314.188934 
	C161.639481,316.883698 161.295563,318.816254 160.245300,320.934235 
	C159.518188,320.994629 158.791061,321.055023 157.576462,320.511353 
	C154.057846,321.325409 150.539246,322.139465 146.561234,323.117523 
	C146.120285,323.296234 145.679337,323.474976 145.168594,324.411560 
	C149.192276,326.265686 153.094421,328.495880 157.280167,329.848419 
	C160.330505,330.834106 163.754929,330.662170 167.663849,331.014099 
	C168.090958,331.089569 168.518066,331.165070 169.105576,331.956604 
	C171.424530,335.120117 174.193146,334.475281 177.863495,332.889465 
	C178.912262,332.996704 179.961044,333.103912 181.420532,333.669708 
	C182.928421,334.379822 184.322296,337.610535 186.687286,333.831909 
	C187.118484,333.904541 187.549698,333.977173 188.174789,334.832428 
	C188.525574,335.155975 188.894577,335.779663 189.224503,335.759644 
	C199.819763,335.116486 210.412369,334.426666 220.998672,333.651733 
	C221.373825,333.624268 221.680466,332.660980 222.648865,331.959991 
	C223.081177,331.915009 223.513474,331.870056 224.325516,332.438873 
	C228.385590,335.570526 230.618881,332.653229 232.937515,329.852386 
	C232.937515,329.852386 232.902390,329.887543 233.729462,329.980743 
	C235.493210,329.350922 237.256958,328.721069 239.421143,327.935760 
	C239.421143,327.935760 239.850540,327.924927 240.721115,328.008789 
	C249.381226,328.284943 256.622711,324.708313 263.276855,319.618042 
	C263.677887,319.311279 263.653534,318.448395 263.851624,317.870117 
	C263.851624,317.870117 263.867035,317.894318 264.353241,317.812073 
	C264.665741,317.663086 264.883636,317.426849 265.355103,316.916321 
	C265.355103,316.916321 265.741364,316.832397 266.515686,316.932159 
	C271.803131,314.164856 277.096680,311.408844 282.345856,308.570831 
	C282.489288,308.493286 282.155273,307.532806 282.038483,306.508759 
	C282.038483,306.508759 282.016846,306.033966 282.283234,305.570496 
	C282.752472,305.329468 283.221680,305.088440 284.273071,304.786194 
	C284.488342,304.481140 284.703613,304.176117 284.940948,303.986908 
	C284.940948,303.986908 284.870209,303.892548 285.601959,303.927765 
	C290.096283,302.362518 293.396820,299.556641 295.003998,294.987885 
	C295.003998,294.987885 294.933289,294.957275 295.431000,294.809418 
	C295.609619,294.524780 295.788239,294.240112 295.999939,294.000000 
M189.478394,249.644623 
	C189.574921,249.257187 189.671463,248.869736 189.732773,248.196518 
	C189.732773,248.196518 189.920959,247.978592 190.633087,247.903488 
	C191.688324,246.355988 192.717636,244.789948 193.806335,243.266373 
	C194.840530,241.819077 195.936844,240.416168 197.076736,239.559677 
	C197.378174,239.882156 197.679611,240.204636 197.981049,240.527145 
	C198.160980,240.319031 198.340912,240.110916 198.520813,239.902786 
	C198.011795,239.603806 197.502762,239.304810 196.916489,238.282532 
	C196.707352,237.485443 196.160583,236.601639 196.339722,235.904297 
	C199.022232,225.462234 201.823700,215.050781 204.520905,204.612411 
	C204.795242,203.550613 204.616531,202.360687 204.582520,201.232208 
	C204.432907,196.267700 204.309357,191.301498 204.071304,186.340958 
	C203.966125,184.149200 204.005325,181.828934 203.287048,179.813599 
	C201.809921,175.669113 198.753815,171.945953 200.703674,167.072342 
	C200.902496,166.575378 200.151779,165.691483 199.827866,164.993561 
	C197.718948,160.449493 193.039688,160.679581 189.354355,160.179962 
	C177.972763,158.636948 163.965363,160.607422 151.600281,164.526993 
	C151.046616,164.702515 150.332001,164.293243 149.716141,164.363785 
	C147.701721,164.594604 145.698288,164.921417 143.071457,165.300720 
	C143.075607,165.302902 142.066422,164.770859 141.057220,164.238800 
	C141.057220,165.757706 141.057220,167.276627 141.057220,168.006546 
	C139.514359,170.217987 138.234482,172.052505 136.956940,173.968430 
	C136.956940,173.968430 136.877548,173.950195 136.151520,173.965118 
	C135.062042,174.332596 133.824905,174.484283 132.911545,175.109192 
	C130.447800,176.794846 128.636429,179.037704 124.812943,178.439209 
	C122.111893,178.016403 120.440628,182.664978 121.513443,185.658524 
	C121.996307,187.005859 121.876282,188.569244 122.000275,189.999588 
	C122.000275,189.999588 122.037148,190.027039 121.325226,190.071259 
	C118.709076,192.870331 116.092934,195.669418 113.304085,198.653275 
	C114.711235,204.231079 111.993874,208.356140 107.361473,211.013763 
	C108.254448,213.082108 109.732475,214.847000 109.560051,216.432419 
	C109.127586,220.408676 107.766754,224.273300 107.102272,228.237015 
	C105.091225,240.233185 104.996208,252.165161 108.954285,263.862244 
	C109.728607,266.150574 110.069473,268.877411 111.555252,270.574890 
	C115.098541,274.622986 119.338623,278.051270 123.053535,281.961456 
	C128.050873,287.221558 133.660339,288.421417 140.266800,285.438904 
	C141.101685,285.061981 142.441391,284.861938 143.141647,285.272186 
	C151.110947,289.941437 156.846649,283.231232 163.146332,280.882385 
	C166.413864,279.664062 168.409790,279.573669 171.051697,281.148590 
	C172.316650,281.902649 173.721664,282.421814 175.436829,283.221558 
	C173.723541,280.075714 172.512131,277.851379 171.300705,275.627014 
	C173.043732,275.178131 174.786758,274.729248 175.971222,274.424225 
	C178.297607,270.642792 180.775970,266.902374 182.938629,262.987518 
	C184.172363,260.754272 184.891205,258.236572 185.844650,255.998840 
	C185.844650,255.998840 185.807098,255.851303 186.558151,255.854431 
	C187.362427,253.892380 188.166702,251.930328 189.002274,249.996078 
	C189.002274,249.996078 188.964508,249.981400 189.478394,249.644623 
M240.292969,175.442001 
	C240.011719,175.709869 239.730469,175.977737 239.449219,176.245605 
	C239.560547,176.361755 239.762222,176.585205 239.770142,176.578552 
	C240.066833,176.328735 240.345688,176.057724 240.292969,175.442001 
M246.559982,224.291489 
	C246.291809,224.010056 246.023621,223.728607 245.755447,223.447174 
	C245.639221,223.558548 245.415665,223.760376 245.422287,223.768250 
	C245.672333,224.065048 245.943542,224.343979 246.559982,224.291489 
z"/>
<path fill="#1CC1EA" opacity="1.000000" stroke="none" 
	d="
M269.969879,74.030350 
	C270.398499,74.359940 270.827148,74.689529 271.710754,75.357819 
	C277.442749,79.464386 282.719757,83.232262 287.996796,87.000145 
	C287.996796,87.000145 288.000000,87.000282 288.127716,87.311310 
	C292.398529,91.693314 296.684021,95.631325 300.644623,99.872726 
	C304.591278,104.099182 308.212036,108.629974 311.975677,113.027328 
	C311.975677,113.027328 312.000000,112.999718 312.035034,113.355919 
	C312.962677,115.116570 313.870087,116.511887 314.745819,117.926765 
	C340.231567,159.103500 344.387909,202.395081 326.554199,247.355438 
	C322.307343,258.062134 315.533478,267.766541 309.921936,277.931946 
	C309.921936,277.931946 309.978851,278.007751 309.719360,278.059418 
	C309.330658,278.416107 309.201477,278.721161 309.072327,279.026184 
	C309.072327,279.026184 309.002716,279.012573 308.717438,279.174072 
	C305.934540,282.540100 303.436920,285.744598 300.939331,288.949127 
	C300.939331,288.949127 301.000000,288.999390 300.655701,289.032684 
	C299.195160,290.364838 298.078918,291.663727 296.962708,292.962585 
	C296.962708,292.962585 296.998657,293.001129 296.731964,293.048218 
	C296.295319,293.385712 296.125397,293.676147 295.955444,293.966553 
	C295.955444,293.966553 295.999939,294.000000 295.729248,294.044434 
	C295.283447,294.378357 295.108368,294.667816 294.933289,294.957275 
	C294.933289,294.957275 295.003998,294.987885 294.646057,295.029663 
	C291.148804,298.011810 288.009491,300.952179 284.870209,303.892548 
	C284.870209,303.892548 284.940948,303.986908 284.658691,303.992401 
	C284.147919,304.281036 283.919403,304.564209 283.690887,304.847382 
	C283.221680,305.088440 282.752472,305.329468 281.881134,305.828247 
	C281.263519,306.366028 281.048004,306.646057 280.496460,306.991974 
	C275.840302,309.738739 271.520111,312.419617 266.809631,315.064697 
	C263.322845,316.754120 260.226379,318.479340 257.056549,320.171692 
	C256.983185,320.138824 257.140656,320.170593 256.751343,320.116943 
	C255.264969,320.744812 254.167877,321.426361 253.029617,322.086121 
	C252.988449,322.064331 253.080521,322.076691 252.702545,322.039734 
	C251.199142,322.648010 250.073685,323.293274 248.710144,324.038513 
	C248.133499,324.189178 247.794968,324.239838 247.102371,324.221313 
	C246.207047,324.509918 245.665771,324.867706 245.052155,325.144470 
	C244.979813,325.063385 245.146103,325.203064 244.830872,325.146545 
	C244.027023,325.420563 243.538391,325.751099 243.023438,326.042969 
	C242.997116,326.004303 243.059891,326.072723 242.764648,326.049622 
	C241.981720,326.306610 241.494034,326.586670 240.764084,326.931458 
	C240.354874,327.004303 240.187912,327.012482 239.592896,326.992432 
	C236.894363,327.328522 234.617676,327.658112 232.354553,328.063446 
	C225.074829,329.367249 217.840988,331.444244 210.513962,331.845886 
	C199.429001,332.453461 188.280472,331.901703 177.007690,331.486694 
	C170.881622,330.108734 164.906830,329.086609 158.937531,328.063599 
	C158.943024,328.062714 158.925034,328.092896 158.800323,327.769165 
	C157.059067,326.483215 155.442535,325.521027 153.869904,324.584961 
	C157.925476,323.556091 161.934280,322.875732 165.686768,321.497467 
	C169.892044,319.952942 173.865341,317.776764 177.966980,315.923187 
	C177.994385,315.970947 177.904968,315.906677 178.297119,315.947754 
	C180.464890,314.990479 182.240494,313.992126 184.157440,312.908936 
	C184.298767,312.824097 184.627045,312.793610 185.030487,312.854187 
	C190.247177,311.256012 195.545090,310.348358 197.945221,304.885040 
	C197.994720,304.896759 197.895859,304.896637 198.233276,304.916534 
	C199.352417,304.242004 200.134109,303.547577 200.941940,302.898621 
	C200.968063,302.944092 200.870560,302.905365 201.127914,302.848389 
	C201.586044,302.515533 201.786819,302.239655 201.992340,301.983582 
	C201.997101,302.003357 201.965302,301.977631 202.281799,301.977753 
	C203.005707,301.568634 203.413116,301.159363 203.898743,300.796387 
	C203.976974,300.842651 203.800339,300.799805 204.070709,300.765900 
	C204.523895,300.435608 204.706711,300.139191 204.927551,299.896423 
	C204.965546,299.950012 204.850891,299.885803 205.110413,299.831757 
	C205.573822,299.501404 205.777710,299.225098 205.987640,298.975952 
	C205.993698,299.003174 205.950500,298.967957 206.315674,298.983032 
	C207.410126,298.278320 208.139420,297.558472 208.903473,296.844666 
	C208.938217,296.850708 208.888718,296.901031 209.263275,296.935791 
	C213.641647,295.785065 216.378708,293.407440 217.034515,289.050720 
	C217.014465,289.011475 217.091019,289.055084 217.456207,289.045258 
	C221.016876,288.206207 223.199829,286.554352 222.859299,282.924988 
	C222.867905,283.004761 222.818390,282.851868 223.184967,282.875275 
	C228.097168,280.661438 231.277008,277.497375 230.982941,271.984680 
	C230.996323,272.002441 230.961319,271.971863 231.327301,271.950470 
	C232.422379,270.579407 233.151474,269.229736 233.878540,267.938782 
	C233.876526,267.997467 233.842560,267.884949 234.211319,267.879944 
	C235.351334,266.209839 236.122589,264.544739 236.918091,262.941467 
	C236.942337,263.003265 236.858551,262.900269 237.230148,262.901489 
	C241.203384,258.890747 244.063721,254.550446 243.882584,248.896393 
	C243.934937,248.952927 243.795456,248.887436 244.141663,248.792358 
	C248.659760,243.876007 250.390121,238.259567 249.962982,231.971802 
	C249.978699,232.008331 249.920670,231.953796 250.294312,231.910278 
	C251.042740,231.563080 251.630692,231.331467 251.761215,230.945251 
	C255.392792,220.199860 257.360870,209.092453 255.772888,197.876755 
	C254.957260,192.115997 251.874344,186.676224 249.868286,181.054260 
	C249.920563,181.017136 249.862213,181.131302 249.895081,180.810394 
	C249.574875,180.008652 249.221786,179.527817 248.914886,179.036667 
	C248.961075,179.026352 248.907196,179.104187 248.928955,178.785416 
	C248.597458,177.990936 248.244217,177.515244 247.935059,177.029907 
	C247.979126,177.020294 247.921982,177.090118 247.956360,176.684464 
	C248.375610,173.166748 247.312561,171.192917 243.905746,171.069809 
	C243.915878,171.070053 243.888550,171.100113 243.925598,170.723160 
	C243.118591,168.490768 242.274506,166.635330 241.262314,164.410339 
	C242.627945,164.255264 243.720154,163.998535 244.804352,164.028732 
	C255.061325,164.314377 265.321533,164.546448 275.571228,165.006912 
	C281.921997,165.292191 283.924469,163.750244 285.093384,157.646912 
	C286.331451,151.182632 287.889618,144.778900 289.348236,138.357849 
	C290.631958,132.706528 291.971283,127.067841 293.336945,121.205078 
	C292.356415,121.205078 291.555450,121.205078 290.798645,121.157425 
	C290.842834,121.109772 290.906769,121.222908 290.678375,120.864273 
	C288.655792,120.331551 286.861725,120.006683 285.067444,120.005585 
	C247.141510,119.982475 209.214508,119.853737 171.290649,120.136856 
	C164.690811,120.186119 158.003983,121.579651 151.536438,123.109444 
	C143.204758,125.080162 134.919281,127.446968 126.885811,130.386322 
	C123.288849,131.702408 120.353065,134.825531 117.103508,137.116669 
	C117.089790,137.104721 117.078453,137.074478 116.689850,137.041473 
	C115.251770,137.734665 114.202301,138.460861 113.128326,139.189392 
	C113.103813,139.191757 113.134506,139.153671 112.736977,139.099915 
	C108.157516,139.135086 105.144226,140.800583 104.063034,145.134598 
	C104.011215,145.126617 104.114029,145.114594 103.734818,145.073578 
	C100.208847,145.951706 96.979523,146.784302 97.036018,151.061264 
	C97.036018,151.061264 97.004776,151.000275 96.642418,150.999146 
	C92.207657,150.987000 90.684029,153.570816 90.038834,157.071167 
	C89.999100,157.052933 90.086487,157.051605 89.836357,157.133102 
	C89.406487,157.504532 89.226738,157.794464 89.068344,158.072052 
	C89.089706,158.059692 89.114120,158.104202 88.760910,158.093628 
	C85.179588,160.442459 81.168236,162.173019 81.143234,167.103851 
	C81.130104,167.093033 81.100700,167.086975 80.731201,167.087769 
	C79.598946,168.421539 78.836197,169.754486 78.049225,171.040955 
	C78.025009,170.994476 78.099648,171.068207 77.735550,171.075623 
	C74.214905,172.365021 72.524872,174.539017 73.121368,178.079010 
	C73.136078,178.063217 73.134735,178.108185 72.763077,178.118561 
	C71.637154,179.858917 70.882874,181.588898 70.085617,183.503784 
	C70.042641,183.688675 69.814606,183.992233 69.620506,184.116028 
	C69.192169,184.462570 69.061783,184.735046 69.030624,185.044113 
	C69.026001,185.030975 69.058853,185.052246 68.709396,185.083679 
	C65.885162,188.925217 63.410385,192.735321 60.457870,197.280914 
	C58.572895,181.383179 61.608482,167.103851 65.882683,152.977142 
	C65.978897,152.659149 65.987694,152.201630 66.205154,152.050079 
	C70.422150,149.111298 69.492203,144.963287 68.851868,140.914124 
	C68.830170,140.944153 68.820778,140.870636 69.219246,140.852173 
	C70.042313,139.123917 70.466911,137.414108 70.910065,135.520462 
	C70.928627,135.336624 71.127449,135.025116 71.334320,134.896301 
	C71.794472,134.530716 71.920433,134.238937 71.899094,133.927307 
	C71.879105,133.962418 71.854507,133.885437 72.232773,133.895447 
	C76.372803,132.346054 76.054230,129.091553 75.939041,125.963821 
	C75.948662,126.010086 75.896034,125.931496 76.274666,125.919098 
	C77.412834,124.244568 78.172379,122.582436 78.946999,120.965515 
	C78.962082,121.010719 78.903717,120.935143 79.263283,120.929916 
	C82.793610,119.122086 85.814659,117.226578 84.735397,112.744766 
	C84.781143,112.730957 84.721664,112.805771 85.035576,112.722198 
	C85.517975,112.048607 85.686455,111.458580 85.839340,110.874557 
	C85.823730,110.880547 85.824371,110.846581 86.199539,110.868729 
	C87.352074,109.561256 88.129433,108.231628 88.909424,106.954300 
	C88.912056,107.006599 88.877106,106.907265 89.246368,106.906876 
	C90.401184,105.590790 91.186729,104.275078 91.987640,102.977905 
	C92.003014,102.996445 91.957100,102.982262 92.197807,102.885559 
	C92.610664,102.498589 92.782806,102.208321 92.942902,101.927948 
	C92.930855,101.937843 92.910889,101.902924 93.297638,101.931717 
	C97.141769,101.946617 97.022224,99.465294 97.048096,97.084274 
	C97.048096,97.084274 97.009720,97.010353 97.456696,97.025955 
	C101.046173,97.356285 102.613014,96.199799 101.862419,92.834442 
	C101.901184,92.825584 101.841553,92.877998 102.103973,92.813316 
	C102.544113,92.449409 102.721832,92.150185 102.927956,91.900307 
	C102.956367,91.949646 102.853943,91.899895 103.113625,91.828766 
	C103.556694,91.461884 103.740082,91.166130 103.943161,90.914261 
	C103.962852,90.958145 103.873398,90.922752 104.129745,90.845139 
	C104.568108,90.472420 104.750130,90.177322 104.951187,89.924683 
	C104.970215,89.967140 104.884300,89.931396 105.139191,89.854660 
	C105.592896,89.494499 105.791702,89.211067 106.023529,88.699181 
	C106.056541,88.470726 106.013168,88.011124 106.013168,88.011124 
	C106.013168,88.011124 106.000000,88.000000 106.237183,88.019196 
	C106.474365,88.038383 106.935806,87.991287 107.177162,87.905037 
	C107.614311,87.547462 107.810104,87.276146 108.002945,87.002411 
	C108.000000,87.000000 108.004173,87.006889 108.411606,87.006531 
	C115.984184,87.264877 119.189934,82.381401 121.972885,76.936722 
	C122.007156,76.969131 121.919289,76.934891 122.309662,76.958359 
	C125.108612,76.056595 128.746185,76.908676 129.107758,72.456062 
	C131.567856,70.822563 133.807098,69.436714 136.046326,68.050873 
	C136.046326,68.050873 135.999557,68.000870 136.387329,68.031052 
	C139.529999,66.722092 142.284882,65.382950 145.039764,64.043808 
	C145.039764,64.043808 145.000000,64.002823 145.406708,64.024269 
	C147.546204,63.485931 149.291855,62.962791 151.009903,62.360886 
	C178.097214,52.870945 205.700333,51.581699 233.226059,59.241783 
	C245.866882,62.759571 257.745575,69.015884 269.969879,74.030350 
z"/>
<path fill="#1DC1E9" opacity="1.000000" stroke="none" 
	d="
M189.920959,247.978592 
	C189.920959,247.978592 189.732773,248.196518 189.509827,248.522369 
	C189.179413,249.225937 189.071960,249.603668 188.964508,249.981400 
	C188.964508,249.981400 189.002274,249.996078 188.718567,250.185638 
	C187.558945,252.200562 186.683014,254.025925 185.807098,255.851303 
	C185.807098,255.851303 185.844650,255.998840 185.557877,256.098206 
	C177.799332,267.787537 168.854431,277.797760 154.939804,281.439117 
	C138.734573,285.679901 121.928818,283.141785 114.131584,269.170959 
	C110.701645,263.025299 108.596237,255.455948 108.233116,248.412170 
	C107.169014,227.770981 111.643829,208.119217 122.037148,190.027039 
	C122.037148,190.027039 122.000275,189.999588 122.312599,189.865051 
	C127.375801,184.470398 132.126678,179.210297 136.877548,173.950195 
	C136.877548,173.950195 136.956940,173.968430 137.287659,173.839844 
	C151.128220,164.138931 166.482330,162.216446 182.565643,161.799423 
	C190.696243,161.588593 194.976349,165.043167 197.822998,171.582062 
	C199.263840,174.891724 200.777298,178.484833 200.893112,181.994812 
	C201.192169,191.059891 201.939850,200.376221 200.291458,209.176987 
	C197.833893,222.298019 193.472382,235.062439 189.920959,247.978592 
z"/>
<path fill="#E0FCFB" opacity="1.000000" stroke="none" 
	d="
M121.681183,190.049149 
	C111.643829,208.119217 107.169014,227.770981 108.233116,248.412170 
	C108.596237,255.455948 110.701645,263.025299 114.131584,269.170959 
	C121.928818,283.141785 138.734573,285.679901 154.939804,281.439117 
	C168.854431,277.797760 177.799332,267.787537 185.556488,256.022278 
	C184.891205,258.236572 184.172363,260.754272 182.938629,262.987518 
	C180.775970,266.902374 178.297607,270.642792 175.971222,274.424225 
	C174.786758,274.729248 173.043732,275.178131 171.300705,275.627014 
	C172.512131,277.851379 173.723541,280.075714 175.436829,283.221558 
	C173.721664,282.421814 172.316650,281.902649 171.051697,281.148590 
	C168.409790,279.573669 166.413864,279.664062 163.146332,280.882385 
	C156.846649,283.231232 151.110947,289.941437 143.141647,285.272186 
	C142.441391,284.861938 141.101685,285.061981 140.266800,285.438904 
	C133.660339,288.421417 128.050873,287.221558 123.053535,281.961456 
	C119.338623,278.051270 115.098541,274.622986 111.555252,270.574890 
	C110.069473,268.877411 109.728607,266.150574 108.954285,263.862244 
	C104.996208,252.165161 105.091225,240.233185 107.102272,228.237015 
	C107.766754,224.273300 109.127586,220.408676 109.560051,216.432419 
	C109.732475,214.847000 108.254448,213.082108 107.361473,211.013763 
	C111.993874,208.356140 114.711235,204.231079 113.304085,198.653275 
	C116.092934,195.669418 118.709076,192.870331 121.681183,190.049149 
z"/>
<path fill="#DFFDFD" opacity="1.000000" stroke="none" 
	d="
M286.045288,142.999039 
	C286.305878,139.374481 286.149048,135.659485 286.910919,132.143570 
	C288.686584,123.949760 288.865662,123.988243 280.367340,123.988159 
	C249.220566,123.987846 218.073349,123.908958 186.927658,124.092789 
	C183.259506,124.114441 179.630081,125.842537 175.923965,126.268051 
	C173.979309,126.491325 171.881439,125.703690 169.901077,125.187248 
	C168.384857,124.791855 166.944443,124.105850 165.531403,123.000092 
	C169.889771,122.026382 174.186264,121.242676 178.484467,121.233253 
	C215.958389,121.151108 253.432632,121.207603 290.906769,121.222908 
	C290.906769,121.222908 290.842834,121.109772 290.765289,121.527771 
	C289.140259,128.963531 287.592773,135.981277 286.045288,142.999039 
z"/>
<path fill="#D2FAFD" opacity="1.000000" stroke="none" 
	d="
M310.276398,277.924713 
	C315.533478,267.766541 322.307343,258.062134 326.554199,247.355438 
	C344.387909,202.395081 340.231567,159.103500 314.745819,117.926765 
	C313.870087,116.511887 312.962677,115.116570 312.020325,113.367264 
	C315.270233,117.373596 319.492493,121.308174 321.683197,126.160065 
	C326.714050,137.302200 331.145966,148.760300 335.030426,160.354996 
	C336.929779,166.024338 336.976440,172.300659 338.027649,178.273026 
	C338.652405,181.822586 340.153778,185.298218 340.263123,188.837906 
	C340.401733,193.325272 339.580231,197.850052 339.058990,202.345505 
	C338.892883,203.778275 338.046082,205.169876 338.050079,206.578796 
	C338.090546,220.898773 333.569092,234.159286 328.823975,247.390259 
	C327.357635,251.478821 326.959412,256.175232 324.687469,259.701080 
	C320.548004,266.125092 315.373535,271.882172 310.276398,277.924713 
z"/>
<path fill="#E0FCFB" opacity="1.000000" stroke="none" 
	d="
M190.277039,247.941040 
	C193.472382,235.062439 197.833893,222.298019 200.291458,209.176987 
	C201.939850,200.376221 201.192169,191.059891 200.893112,181.994812 
	C200.777298,178.484833 199.263840,174.891724 197.822998,171.582062 
	C194.976349,165.043167 190.696243,161.588593 182.565643,161.799423 
	C166.482330,162.216446 151.128220,164.138931 137.286499,173.799133 
	C138.234482,172.052505 139.514359,170.217987 141.057220,168.006546 
	C141.057220,167.276627 141.057220,165.757706 141.057220,164.238800 
	C142.066422,164.770859 143.075607,165.302902 143.071457,165.300720 
	C145.698288,164.921417 147.701721,164.594604 149.716141,164.363785 
	C150.332001,164.293243 151.046616,164.702515 151.600281,164.526993 
	C163.965363,160.607422 177.972763,158.636948 189.354355,160.179962 
	C193.039688,160.679581 197.718948,160.449493 199.827866,164.993561 
	C200.151779,165.691483 200.902496,166.575378 200.703674,167.072342 
	C198.753815,171.945953 201.809921,175.669113 203.287048,179.813599 
	C204.005325,181.828934 203.966125,184.149200 204.071304,186.340958 
	C204.309357,191.301498 204.432907,196.267700 204.582520,201.232208 
	C204.616531,202.360687 204.795242,203.550613 204.520905,204.612411 
	C201.823700,215.050781 199.022232,225.462234 196.339722,235.904297 
	C196.160583,236.601639 196.707352,237.485443 196.958252,238.641266 
	C197.000000,239.000000 197.005829,238.993729 197.005829,238.993744 
	C195.936844,240.416168 194.840530,241.819077 193.806335,243.266373 
	C192.717636,244.789948 191.688324,246.355988 190.277039,247.941040 
z"/>
<path fill="#D5FAFD" opacity="1.000000" stroke="none" 
	d="
M269.946045,73.669128 
	C257.745575,69.015884 245.866882,62.759571 233.226059,59.241783 
	C205.700333,51.581699 178.097214,52.870945 151.009903,62.360886 
	C149.291855,62.962791 147.546204,63.485931 145.426620,64.046806 
	C145.768951,63.306011 146.368958,62.174667 147.247467,61.883423 
	C154.728699,59.403294 161.765945,55.897182 170.062119,55.600906 
	C179.559052,55.261749 188.997375,52.307968 198.461670,52.305378 
	C207.725479,52.302845 217.060989,54.215103 226.231613,55.980083 
	C233.569702,57.392372 240.684082,59.938766 247.954330,61.755413 
	C249.414993,62.120392 251.130630,61.467289 252.728348,61.280453 
	C253.865326,61.147495 255.001694,61.009285 256.138336,60.873421 
	C256.011810,62.046432 255.885254,63.219440 255.838715,63.650700 
	C260.656097,66.954048 265.289154,70.130981 269.946045,73.669128 
z"/>
<path fill="#D5FAFD" opacity="1.000000" stroke="none" 
	d="
M71.127441,135.025116 
	C71.127449,135.025116 70.928627,135.336624 70.646118,135.766541 
	C69.849335,137.754517 69.335060,139.312576 68.820778,140.870636 
	C68.820778,140.870636 68.830170,140.944153 68.553276,141.105347 
	C61.956734,155.519440 58.840015,170.556091 58.148045,186.025238 
	C57.810150,193.578796 58.712379,201.187836 59.053284,208.771759 
	C58.769459,209.283249 58.485634,209.794739 58.201813,210.306229 
	C57.519081,209.263748 56.298740,208.251434 56.238243,207.174026 
	C55.731464,198.148087 55.302258,189.112045 55.179165,180.074554 
	C55.150032,177.935501 56.437325,175.798187 56.994652,173.628113 
	C59.799530,162.706772 61.516598,151.360275 65.635132,140.963013 
	C69.768593,130.528076 74.372307,119.919441 82.456818,111.533577 
	C82.581924,111.403809 82.336990,110.917305 82.456833,110.155037 
	C84.839729,108.180290 87.030533,106.647789 89.158646,105.413834 
	C89.023010,106.110672 88.950058,106.508965 88.877106,106.907265 
	C88.877106,106.907265 88.912056,107.006599 88.607941,107.078491 
	C87.477341,108.382454 86.650856,109.614517 85.824371,110.846581 
	C85.824371,110.846581 85.823730,110.880547 85.557617,111.000977 
	C85.101562,111.682861 84.911613,112.244316 84.721664,112.805771 
	C84.721664,112.805771 84.781143,112.730957 84.419495,112.827744 
	C82.339798,115.594742 80.621758,118.264938 78.903717,120.935143 
	C78.903717,120.935143 78.962082,121.010719 78.651718,121.119720 
	C77.526253,122.796310 76.711143,124.363899 75.896034,125.931496 
	C75.896034,125.931496 75.948662,126.010086 75.650345,126.151535 
	C74.186195,128.823792 73.020348,131.354614 71.854507,133.885437 
	C71.854507,133.885437 71.879105,133.962418 71.658325,134.017883 
	C71.334175,134.390594 71.230812,134.707855 71.127441,135.025116 
z"/>
<path fill="#37BBDA" opacity="1.000000" stroke="none" 
	d="
M290.678375,120.864273 
	C253.432632,121.207603 215.958389,121.151108 178.484467,121.233253 
	C174.186264,121.242676 169.889771,122.026382 165.283661,122.711578 
	C164.532318,122.976234 164.089783,122.980400 162.904861,122.994614 
	C156.424133,124.288315 150.685806,125.571983 144.947464,126.855637 
	C144.517242,126.910202 144.087036,126.964775 142.972076,127.088531 
	C138.156525,128.752136 134.025726,130.346558 129.894913,131.940964 
	C129.894913,131.940964 129.431778,131.992172 128.973160,132.093018 
	C128.155090,132.304855 127.950150,132.546768 127.899704,132.919586 
	C127.899704,132.919586 128.006516,132.936157 127.589577,132.921387 
	C123.820831,134.313934 120.469032,135.721268 117.117226,137.128601 
	C120.353065,134.825531 123.288849,131.702408 126.885811,130.386322 
	C134.919281,127.446968 143.204758,125.080162 151.536438,123.109444 
	C158.003983,121.579651 164.690811,120.186119 171.290649,120.136856 
	C209.214508,119.853737 247.141510,119.982475 285.067444,120.005585 
	C286.861725,120.006683 288.655792,120.331551 290.678375,120.864273 
z"/>
<path fill="#37BBDA" opacity="1.000000" stroke="none" 
	d="
M286.050049,143.331146 
	C287.592773,135.981277 289.140259,128.963531 290.721130,121.575424 
	C291.555450,121.205078 292.356415,121.205078 293.336945,121.205078 
	C291.971283,127.067841 290.631958,132.706528 289.348236,138.357849 
	C287.889618,144.778900 286.331451,151.182632 285.093384,157.646912 
	C283.924469,163.750244 281.921997,165.292191 275.571228,165.006912 
	C265.321533,164.546448 255.061325,164.314377 244.804352,164.028732 
	C243.720154,163.998535 242.627945,164.255264 241.262314,164.410339 
	C242.274506,166.635330 243.118591,168.490768 243.671600,170.612183 
	C242.935974,170.565857 242.491409,170.253540 242.046844,169.941223 
	C242.046844,169.941223 241.997391,169.990829 241.954025,169.725327 
	C241.629745,169.259109 241.348846,169.058395 241.067932,168.857666 
	C241.021698,168.545090 240.883606,168.280457 240.276978,167.677338 
	C238.311234,166.142273 236.722153,164.993622 235.133072,163.844971 
	C235.133072,163.844986 235.025238,163.894958 235.010757,163.642273 
	C234.701736,163.213257 234.407181,163.036926 234.112640,162.860580 
	C234.182053,162.542664 234.361664,162.309723 235.299316,162.085983 
	C249.974777,161.991531 264.003174,162.035782 278.028992,161.865707 
	C279.588745,161.846802 281.133667,160.607452 282.685486,159.934113 
	C282.807312,159.208435 282.929138,158.482773 283.285095,157.112274 
	C284.244873,152.623444 284.970551,148.779434 285.696228,144.935425 
	C285.815765,144.511368 285.935272,144.087311 286.050049,143.331146 
z"/>
<path fill="#DFFDFD" opacity="1.000000" stroke="none" 
	d="
M242.031128,170.319489 
	C242.491409,170.253540 242.935974,170.565857 243.634552,170.989136 
	C243.888550,171.100113 243.915878,171.070053 243.961029,171.403870 
	C245.311462,173.521835 246.616714,175.305984 247.921982,177.090118 
	C247.921982,177.090118 247.979126,177.020294 247.945114,177.336243 
	C248.243134,178.136185 248.575165,178.620178 248.907196,179.104187 
	C248.907196,179.104187 248.961075,179.026352 248.913666,179.346756 
	C249.198242,180.155212 249.530228,180.643265 249.862213,181.131302 
	C249.862213,181.131302 249.920563,181.017136 249.876892,181.443756 
	C252.839752,190.705902 255.084885,199.750381 253.999191,209.109238 
	C253.109497,216.778595 251.314407,224.342911 249.920670,231.953796 
	C249.920670,231.953796 249.978699,232.008331 249.696747,232.221649 
	C247.541672,237.919113 245.668564,243.403275 243.795456,248.887436 
	C243.795456,248.887436 243.934937,248.952927 243.640228,249.002747 
	C242.999954,249.452423 242.654404,249.852280 242.202667,250.162292 
	C242.096481,250.072433 241.887543,249.888733 241.887543,249.888733 
	C243.495209,244.560989 245.261841,239.274689 246.664169,233.893433 
	C247.969406,228.884796 249.045013,223.802307 249.923172,218.700943 
	C250.589890,214.827988 250.261215,210.727814 251.302002,206.986511 
	C253.602722,198.716125 249.900146,191.318939 248.640793,183.568604 
	C248.569122,183.127548 248.184311,182.613510 247.796692,182.366638 
	C243.506821,179.634323 243.092621,175.005371 242.031128,170.319489 
z"/>
<path fill="#37BBDA" opacity="1.000000" stroke="none" 
	d="
M59.210732,208.759888 
	C58.712379,201.187836 57.810150,193.578796 58.148045,186.025238 
	C58.840015,170.556091 61.956734,155.519440 68.574982,141.075317 
	C69.492203,144.963287 70.422150,149.111298 66.205154,152.050079 
	C65.987694,152.201630 65.978897,152.659149 65.882683,152.977142 
	C61.608482,167.103851 58.572895,181.383179 60.457870,197.280914 
	C63.410385,192.735321 65.885162,188.925217 68.660538,185.435333 
	C67.937286,188.141296 66.913445,190.527069 65.889603,192.912842 
	C65.889610,192.912842 65.926270,193.002594 65.628357,193.155426 
	C63.447449,198.468124 61.564442,203.628006 59.681438,208.787888 
	C59.681438,208.787888 59.368179,208.748001 59.210732,208.759888 
z"/>
<path fill="#DFFDFD" opacity="1.000000" stroke="none" 
	d="
M184.627045,312.793610 
	C184.627045,312.793610 184.298767,312.824097 183.806549,312.922546 
	C181.511215,313.982880 179.708084,314.944763 177.904968,315.906677 
	C177.904968,315.906677 177.994385,315.970947 177.586746,315.940826 
	C171.769958,317.523407 166.360809,319.136108 160.951660,320.748810 
	C161.295563,318.816254 161.639481,316.883698 162.119049,314.188934 
	C166.216766,317.396393 170.954407,318.215179 175.670822,313.934204 
	C174.914658,313.325958 174.136185,312.699738 173.357697,312.073517 
	C173.477921,311.739807 173.598129,311.406097 173.718353,311.072388 
	C175.419617,311.479706 177.120895,311.887024 179.467392,312.448822 
	C187.560715,307.767090 196.266129,302.731262 205.192810,297.567474 
	C204.341278,295.708069 203.714554,294.339539 202.479294,291.642181 
	C205.760361,292.623962 207.910065,293.267212 210.486542,293.916107 
	C210.913330,293.921753 211.026108,294.025848 210.896652,294.299683 
	C210.141037,295.349396 209.514877,296.125214 208.888718,296.901031 
	C208.888718,296.901031 208.938217,296.850708 208.593079,296.894714 
	C207.482147,297.615112 206.716324,298.291534 205.950500,298.967957 
	C205.950500,298.967957 205.993698,299.003174 205.727478,299.031799 
	C205.257797,299.335571 205.054337,299.610687 204.850891,299.885803 
	C204.850891,299.885803 204.965546,299.950012 204.674408,299.963165 
	C204.188965,300.250824 203.994659,300.525299 203.800339,300.799805 
	C203.800339,300.799805 203.976974,300.842651 203.604248,300.829071 
	C202.809464,301.202881 202.387375,301.590240 201.965302,301.977631 
	C201.965302,301.977631 201.997101,302.003357 201.728851,302.029968 
	C201.263916,302.339539 201.067230,302.622437 200.870560,302.905365 
	C200.870560,302.905365 200.968063,302.944092 200.626968,302.944580 
	C199.489197,303.595612 198.692520,304.246124 197.895844,304.896637 
	C197.895859,304.896637 197.994720,304.896759 197.602875,304.946411 
	C193.016357,307.595245 188.821701,310.194427 184.627045,312.793610 
z"/>
<path fill="#48BCD8" opacity="1.000000" stroke="none" 
	d="
M177.158966,331.842590 
	C188.280472,331.901703 199.429001,332.453461 210.513962,331.845886 
	C217.840988,331.444244 225.074829,329.367249 232.354553,328.063446 
	C234.617676,327.658112 236.894363,327.328522 239.548126,327.218018 
	C239.931427,327.471832 239.850540,327.924927 239.850540,327.924927 
	C239.850540,327.924927 239.421143,327.935760 238.851562,327.980957 
	C236.488785,328.646637 234.695587,329.267090 232.902390,329.887543 
	C232.902390,329.887543 232.937515,329.852386 232.517334,329.849304 
	C229.380035,330.505829 226.662918,331.165466 223.945786,331.825104 
	C223.513474,331.870056 223.081177,331.915009 221.912933,331.993469 
	C210.111633,332.701233 199.046265,333.375519 187.980896,334.049805 
	C187.549698,333.977173 187.118484,333.904541 186.071762,333.626678 
	C183.974091,333.351349 182.491959,333.281250 181.009811,333.211151 
	C179.961044,333.103912 178.912262,332.996704 177.441193,332.696045 
	C177.018906,332.502655 176.887268,332.126709 176.954559,332.055084 
	C177.021866,331.983459 177.158966,331.842590 177.158966,331.842590 
z"/>
<path fill="#DFFDFD" opacity="1.000000" stroke="none" 
	d="
M282.239624,159.950653 
	C281.133667,160.607452 279.588745,161.846802 278.028992,161.865707 
	C264.003174,162.035782 249.974777,161.991531 235.484268,161.954376 
	C236.665680,161.270172 238.303909,160.115234 239.955200,160.096237 
	C253.900024,159.935654 267.847260,159.982605 282.239624,159.950653 
z"/>
<path fill="#DFFDFD" opacity="1.000000" stroke="none" 
	d="
M213.847244,290.830841 
	C215.150955,288.395996 216.121490,285.693939 217.820221,283.575897 
	C223.133774,276.950714 228.722198,270.546021 234.623352,264.043579 
	C235.042603,264.031250 235.234085,264.196503 235.151886,264.517578 
	C234.660629,265.854095 234.251602,266.869507 233.842560,267.884949 
	C233.842560,267.884949 233.876526,267.997467 233.594543,268.095154 
	C232.528809,269.452545 231.745071,270.712189 230.961319,271.971863 
	C230.961319,271.971863 230.996323,272.002441 230.692444,272.150848 
	C227.865173,275.816803 225.341782,279.334351 222.818390,282.851868 
	C222.818390,282.851868 222.867905,283.004761 222.554398,283.048523 
	C220.524277,285.079895 218.807648,287.067505 217.091034,289.055084 
	C217.091019,289.055084 217.014465,289.011475 216.745712,289.138763 
	C215.685684,289.879456 214.894409,290.492828 214.038376,291.038086 
	C213.973633,290.969971 213.847244,290.830841 213.847244,290.830841 
z"/>
<path fill="#E0FCFB" opacity="1.000000" stroke="none" 
	d="
M136.514526,173.957657 
	C132.126678,179.210297 127.375801,184.470398 122.327362,189.882553 
	C121.876282,188.569244 121.996307,187.005859 121.513443,185.658524 
	C120.440628,182.664978 122.111893,178.016403 124.812943,178.439209 
	C128.636429,179.037704 130.447800,176.794846 132.911545,175.109192 
	C133.824905,174.484283 135.062042,174.332596 136.514526,173.957657 
z"/>
<path fill="#D2FAFD" opacity="1.000000" stroke="none" 
	d="
M311.995361,112.656097 
	C308.212036,108.629974 304.591278,104.099182 300.644623,99.872726 
	C296.684021,95.631325 292.398529,91.693314 288.128052,87.312714 
	C291.056183,88.919823 294.629791,90.337662 297.057312,92.858971 
	C301.846893,97.833580 306.040466,103.388138 310.382660,108.781685 
	C311.167053,109.755981 311.482880,111.107498 311.995361,112.656097 
z"/>
<path fill="#48BCD8" opacity="1.000000" stroke="none" 
	d="
M160.598480,320.841522 
	C166.360809,319.136108 171.769958,317.523407 177.559357,315.893066 
	C173.865341,317.776764 169.892044,319.952942 165.686768,321.497467 
	C161.934280,322.875732 157.925476,323.556091 153.869904,324.584961 
	C155.442535,325.521027 157.059067,326.483215 158.413940,327.780975 
	C153.847656,326.628937 149.543030,325.141327 145.238388,323.653717 
	C145.679337,323.474976 146.120285,323.296234 147.207733,323.081543 
	C151.257462,322.402161 154.660706,321.758789 158.063950,321.115417 
	C158.791061,321.055023 159.518188,320.994629 160.598480,320.841522 
z"/>
<path fill="#F9FEF8" opacity="1.000000" stroke="none" 
	d="
M124.964363,136.931259 
	C126.173439,137.622604 127.370529,138.336044 128.594727,138.999496 
	C130.028229,139.776382 131.485321,140.509766 132.614273,142.433563 
	C131.581116,142.599045 130.175583,143.281998 129.573364,142.848633 
	C124.493301,139.192886 120.169777,141.825867 115.649780,144.069046 
	C114.466034,144.656525 112.856850,144.386765 111.377731,143.924805 
	C115.863060,141.203033 120.413712,139.067139 124.964363,136.931259 
z"/>
<path fill="#D5FAFD" opacity="1.000000" stroke="none" 
	d="
M125.122688,136.641907 
	C120.413712,139.067139 115.863060,141.203033 111.150024,143.643097 
	C107.854546,145.601471 104.721436,147.255692 101.354004,148.574585 
	C102.117790,147.197693 103.115906,146.156143 104.114029,145.114594 
	C104.114029,145.114594 104.011215,145.126617 104.404594,145.086182 
	C107.576820,143.081726 110.355667,141.117706 113.134506,139.153687 
	C113.134506,139.153671 113.103813,139.191757 113.455658,139.161438 
	C114.897820,138.445572 115.988136,137.760025 117.078453,137.074478 
	C117.078453,137.074478 117.089790,137.104721 117.103508,137.116669 
	C120.469032,135.721268 123.820831,134.313934 127.541870,132.895905 
	C127.034409,134.041000 126.157707,135.196793 125.122688,136.641907 
z"/>
<path fill="#DAFBFC" opacity="1.000000" stroke="none" 
	d="
M188.077850,334.441101 
	C199.046265,333.375519 210.111633,332.701233 221.598022,332.080383 
	C221.680466,332.660980 221.373825,333.624268 220.998672,333.651733 
	C210.412369,334.426666 199.819763,335.116486 189.224503,335.759644 
	C188.894577,335.779663 188.525574,335.155975 188.077850,334.441101 
z"/>
<path fill="#DAFBFC" opacity="1.000000" stroke="none" 
	d="
M240.285828,327.966858 
	C239.850540,327.924927 239.931427,327.471832 239.976196,327.246216 
	C240.187912,327.012482 240.354874,327.004303 241.058441,326.974701 
	C242.083328,326.659760 242.571609,326.366241 243.059906,326.072723 
	C243.059891,326.072723 242.997116,326.004303 243.327271,326.048645 
	C244.153656,325.796356 244.649872,325.499695 245.146088,325.203064 
	C245.146103,325.203064 244.979813,325.063385 245.377441,325.140442 
	C246.335526,324.908508 246.895981,324.599518 247.456436,324.290527 
	C247.794968,324.239838 248.133499,324.189178 249.049561,324.047516 
	C250.778214,323.329926 251.929367,322.703308 253.080521,322.076691 
	C253.080521,322.076691 252.988449,322.064331 253.364838,322.074707 
	C254.874359,321.446899 256.007507,320.808746 257.140656,320.170593 
	C257.140656,320.170593 256.983185,320.138824 257.416626,320.147369 
	C259.842407,319.385376 261.834778,318.614838 263.827148,317.844299 
	C263.653534,318.448395 263.677887,319.311279 263.276855,319.618042 
	C256.622711,324.708313 249.381226,328.284943 240.285828,327.966858 
z"/>
<path fill="#DFFDFD" opacity="1.000000" stroke="none" 
	d="
M145.136276,127.158951 
	C150.685806,125.571983 156.424133,124.288315 162.582733,123.080635 
	C162.120224,124.318398 161.237457,125.480179 161.183243,125.551521 
	C157.133224,126.519417 154.223755,127.439529 151.244202,127.846130 
	C149.324387,128.108109 147.301682,127.616257 145.136276,127.158951 
z"/>
<path fill="#D5FAFD" opacity="1.000000" stroke="none" 
	d="
M135.661255,68.019531 
	C133.807098,69.436714 131.567856,70.822563 128.763916,72.538055 
	C126.105896,74.223434 124.012596,75.579163 121.919289,76.934891 
	C121.919289,76.934891 122.007156,76.969131 121.674377,76.957138 
	C120.953262,77.035927 120.564926,77.126717 120.092941,77.118324 
	C120.009293,77.019150 119.841187,76.821495 119.841187,76.821495 
	C123.023232,73.195442 126.205276,69.569389 129.387329,65.943336 
	C129.586960,66.055771 129.786591,66.168213 129.986237,66.280655 
	C129.652664,67.148811 129.319092,68.016968 128.801941,69.362938 
	C131.271225,68.838608 133.273712,68.413399 135.661255,68.019531 
z"/>
<path fill="#D2FAFD" opacity="1.000000" stroke="none" 
	d="
M287.975220,86.652237 
	C282.719757,83.232262 277.442749,79.464386 271.983673,75.409256 
	C275.559479,74.610710 278.422455,75.566589 280.753387,78.979919 
	C282.653717,81.762665 285.517212,83.887680 287.975220,86.652237 
z"/>
<path fill="#DAFBFC" opacity="1.000000" stroke="none" 
	d="
M145.203491,324.032654 
	C149.543030,325.141327 153.847656,326.628937 158.538666,328.104736 
	C158.925034,328.092896 158.943024,328.062714 159.197205,328.321106 
	C161.971786,329.388428 164.492172,330.197388 167.012573,331.006348 
	C163.754929,330.662170 160.330505,330.834106 157.280167,329.848419 
	C153.094421,328.495880 149.192276,326.265686 145.203491,324.032654 
z"/>
<path fill="#DAFBFC" opacity="1.000000" stroke="none" 
	d="
M267.199951,315.100464 
	C271.520111,312.419617 275.840302,309.738739 280.799530,307.020691 
	C281.640350,306.983643 281.842133,306.983826 282.043915,306.984039 
	C282.155273,307.532806 282.489288,308.493286 282.345856,308.570831 
	C277.096680,311.408844 271.803131,314.164856 266.278442,316.638947 
	C266.427460,315.930634 266.813721,315.515564 267.199951,315.100464 
z"/>
<path fill="#F8FDF4" opacity="1.000000" stroke="none" 
	d="
M89.221344,105.115288 
	C87.030533,106.647789 84.839729,108.180290 82.352112,109.867592 
	C81.481087,105.474442 86.232086,100.237724 90.520615,101.277786 
	C90.520653,102.460854 90.299820,103.301170 89.998917,104.352997 
	C89.755562,104.835754 89.523064,105.019356 89.221344,105.115288 
z"/>
<path fill="#DFFDFD" opacity="1.000000" stroke="none" 
	d="
M234.947205,263.948242 
	C236.719193,259.145569 235.294022,252.911179 241.546967,249.970581 
	C241.887543,249.888733 242.096481,250.072433 242.129852,250.515839 
	C240.395004,254.939575 238.626770,258.919922 236.858551,262.900269 
	C236.858551,262.900269 236.942337,263.003265 236.667831,263.040924 
	C236.006912,263.451233 235.620514,263.823883 235.234100,264.196503 
	C235.234085,264.196503 235.042603,264.031250 234.947205,263.948242 
z"/>
<path fill="#F9FDF9" opacity="1.000000" stroke="none" 
	d="
M74.964890,180.942093 
	C75.469894,182.287415 75.664185,183.894974 76.537369,184.929535 
	C79.308212,188.212387 77.220932,189.102646 74.266205,190.019501 
	C73.379013,188.673599 72.540466,187.401489 71.493004,185.725708 
	C71.475563,184.138519 71.667053,182.955002 71.914238,181.574493 
	C71.969933,181.377502 72.214317,181.047852 72.558746,181.039978 
	C73.590408,181.002090 74.277649,180.972092 74.964890,180.942093 
z"/>
<path fill="#D5FAFD" opacity="1.000000" stroke="none" 
	d="
M60.028477,208.687546 
	C61.564442,203.628006 63.447449,198.468124 65.619682,193.109848 
	C64.064445,198.136703 62.219982,203.361954 60.028477,208.687546 
z"/>
<path fill="#48BCD8" opacity="1.000000" stroke="none" 
	d="
M167.338211,331.010223 
	C164.492172,330.197388 161.971786,329.388428 159.191711,328.321991 
	C164.906830,329.086609 170.881622,330.108734 177.007690,331.486694 
	C177.158966,331.842590 177.021866,331.983459 176.548676,332.056732 
	C173.698715,331.833527 171.321945,331.537048 168.945175,331.240570 
	C168.518066,331.165070 168.090958,331.089569 167.338211,331.010223 
z"/>
<path fill="#DFFDFD" opacity="1.000000" stroke="none" 
	d="
M285.321625,144.968109 
	C284.970551,148.779434 284.244873,152.623444 283.265503,156.743546 
	C281.232758,152.623047 281.672821,148.583740 285.321625,144.968109 
z"/>
<path fill="#D2FAFD" opacity="1.000000" stroke="none" 
	d="
M285.236084,303.910156 
	C288.009491,300.952179 291.148804,298.011810 294.618500,295.002563 
	C293.396820,299.556641 290.096283,302.362518 285.236084,303.910156 
z"/>
<path fill="#D5FAFD" opacity="1.000000" stroke="none" 
	d="
M71.858536,181.771500 
	C71.667053,182.955002 71.475563,184.138519 71.137199,185.659760 
	C69.534119,188.300980 68.077927,190.604431 66.255669,192.910370 
	C66.913445,190.527069 67.937286,188.141296 69.009995,185.403885 
	C69.058853,185.052246 69.026001,185.030975 69.252975,184.947205 
	C69.754295,184.635590 69.865845,184.345184 69.814606,183.992233 
	C69.814606,183.992233 70.042641,183.688675 70.332832,183.341248 
	C71.034866,182.586380 71.446701,182.178940 71.858536,181.771500 
z"/>
<path fill="#D5FAFD" opacity="1.000000" stroke="none" 
	d="
M74.976501,180.582214 
	C74.277649,180.972092 73.590408,181.002090 72.603027,180.729706 
	C72.580170,179.654297 72.857460,178.881241 73.134735,178.108185 
	C73.134735,178.108185 73.136078,178.063217 73.424683,177.939941 
	C75.175407,175.567184 76.637527,173.317703 78.099648,171.068207 
	C78.099648,171.068207 78.025009,170.994476 78.300842,170.934525 
	C78.994812,170.526596 79.412956,170.178604 79.910591,169.911758 
	C79.990082,169.992905 80.146767,170.157440 80.146759,170.157440 
	C78.427208,173.512405 76.707657,176.867371 74.976501,180.582214 
z"/>
<path fill="#D5FAFD" opacity="1.000000" stroke="none" 
	d="
M105.644424,88.001335 
	C106.013168,88.011124 106.056541,88.470726 105.763245,88.770538 
	C105.274742,89.357376 105.079521,89.644386 104.884300,89.931396 
	C104.884300,89.931396 104.970215,89.967140 104.694954,90.002472 
	C104.237595,90.332779 104.055496,90.627762 103.873398,90.922752 
	C103.873398,90.922752 103.962852,90.958145 103.682434,90.985641 
	C103.219322,91.308723 103.036629,91.604309 102.853943,91.899895 
	C102.853943,91.899895 102.956367,91.949646 102.666870,91.969566 
	C102.198769,92.285660 102.020157,92.581825 101.841553,92.877998 
	C101.841553,92.877998 101.901184,92.825584 101.560471,92.939224 
	C99.848457,94.094353 98.477142,95.135857 97.105835,96.177353 
	C97.150414,90.775276 101.772705,89.941978 105.644424,88.001335 
z"/>
<path fill="#D2FAFD" opacity="1.000000" stroke="none" 
	d="
M301.291870,288.944458 
	C303.436920,285.744598 305.934540,282.540100 308.736908,279.203735 
	C306.575897,282.361176 304.110138,285.650482 301.291870,288.944458 
z"/>
<path fill="#37BBDA" opacity="1.000000" stroke="none" 
	d="
M81.156357,167.114685 
	C81.168236,162.173019 85.179588,160.442459 88.731140,158.395782 
	C88.965820,159.103180 88.877037,159.497879 88.788254,159.892563 
	C88.484795,159.974854 88.248161,160.148315 87.698944,160.740891 
	C86.520676,162.023056 85.721832,162.977264 84.922989,163.931488 
	C84.922989,163.931488 84.979057,164.005249 84.714661,164.046051 
	C84.300369,164.391403 84.150467,164.695969 84.000572,165.000534 
	C84.000572,165.000534 84.000000,165.000000 83.714424,165.096100 
	C82.671356,165.833023 81.913857,166.473846 81.156357,167.114685 
z"/>
<path fill="#DAFBFC" opacity="1.000000" stroke="none" 
	d="
M224.135651,332.131989 
	C226.662918,331.165466 229.380035,330.505829 232.492340,329.849670 
	C230.618881,332.653229 228.385590,335.570526 224.135651,332.131989 
z"/>
<path fill="#D5FAFD" opacity="1.000000" stroke="none" 
	d="
M89.163139,159.906555 
	C88.877037,159.497879 88.965820,159.103180 89.084358,158.406342 
	C89.114120,158.104202 89.089706,158.059692 89.322319,157.995850 
	C89.732117,157.638550 89.909302,157.345078 90.086487,157.051605 
	C90.086487,157.051605 89.999100,157.052933 90.362114,156.986633 
	C92.465820,155.594315 94.206520,154.268311 95.947220,152.942291 
	C95.884636,157.173080 92.682320,158.520172 89.163139,159.906555 
z"/>
<path fill="#DFFDFD" opacity="1.000000" stroke="none" 
	d="
M130.312866,131.972717 
	C134.025726,130.346558 138.156525,128.752136 142.661987,127.188255 
	C138.934692,128.814026 134.832748,130.409256 130.312866,131.972717 
z"/>
<path fill="#DFFDFD" opacity="1.000000" stroke="none" 
	d="
M157.820206,320.813385 
	C154.660706,321.758789 151.257462,322.402161 147.437439,322.999512 
	C150.539246,322.139465 154.057846,321.325409 157.820206,320.813385 
z"/>
<path fill="#48BCD8" opacity="1.000000" stroke="none" 
	d="
M266.809631,315.064697 
	C266.813721,315.515564 266.427460,315.930634 265.891296,316.589050 
	C265.741364,316.832397 265.355103,316.916321 264.925537,317.027374 
	C264.286316,317.390381 264.076691,317.642365 263.867035,317.894318 
	C263.867035,317.894318 263.851624,317.870117 263.839386,317.857208 
	C261.834778,318.614838 259.842407,319.385376 257.489990,320.180237 
	C260.226379,318.479340 263.322845,316.754120 266.809631,315.064697 
z"/>
<path fill="#37BBDA" opacity="1.000000" stroke="none" 
	d="
M103.734818,145.073578 
	C103.115906,146.156143 102.117790,147.197693 100.981758,148.518799 
	C100.843849,148.798340 100.877563,148.820297 100.558441,148.884613 
	C99.494621,149.634918 98.749931,150.320908 98.005241,151.006897 
	C98.005241,151.006897 97.522446,151.067123 97.279236,151.064194 
	C96.979523,146.784302 100.208847,145.951706 103.734818,145.073578 
z"/>
<path fill="#37BBDA" opacity="1.000000" stroke="none" 
	d="
M95.957550,152.958588 
	C94.206520,154.268311 92.465820,155.594315 90.401848,157.004852 
	C90.684029,153.570816 92.207657,150.987000 96.671005,151.018051 
	C97.061958,151.038086 97.032341,151.473038 96.748398,151.776901 
	C96.290314,152.375381 96.116173,152.669998 95.942032,152.964600 
	C95.942032,152.964600 95.967888,152.974854 95.957550,152.958588 
z"/>
<path fill="#DAFBFC" opacity="1.000000" stroke="none" 
	d="
M169.025375,331.598572 
	C171.321945,331.537048 173.698715,331.833527 176.481384,332.128357 
	C176.887268,332.126709 177.018906,332.502655 177.045441,332.699951 
	C174.193146,334.475281 171.424530,335.120117 169.025375,331.598572 
z"/>
<path fill="#D5FAFD" opacity="1.000000" stroke="none" 
	d="
M144.637878,64.013023 
	C142.284882,65.382950 139.529999,66.722092 136.406067,68.059830 
	C138.770004,66.699707 141.503006,65.340973 144.637878,64.013023 
z"/>
<path fill="#D5FAFD" opacity="1.000000" stroke="none" 
	d="
M112.834595,81.854126 
	C114.937340,80.218811 117.040077,78.583496 119.492004,76.884842 
	C119.841187,76.821495 120.009293,77.019150 119.894943,77.381989 
	C117.555664,79.203476 115.330734,80.662132 113.039398,82.052704 
	C112.972984,81.984619 112.834595,81.854118 112.834595,81.854126 
z"/>
<path fill="#37BBDA" opacity="1.000000" stroke="none" 
	d="
M97.084366,96.394753 
	C98.477142,95.135857 99.848457,94.094353 101.521713,92.948074 
	C102.613014,96.199799 101.046173,97.356285 97.493698,97.045067 
	C97.083725,97.048569 97.062904,96.612152 97.084366,96.394753 
z"/>
<path fill="#37BBDA" opacity="1.000000" stroke="none" 
	d="
M96.832870,97.068985 
	C97.022224,99.465294 97.141769,101.946617 93.401985,101.639946 
	C93.500542,100.595360 93.881493,99.871338 94.262436,99.147316 
	C94.561195,99.053024 94.786819,98.869049 95.258545,98.277634 
	C95.780830,97.666801 95.983887,97.373703 96.186943,97.080605 
	C96.186943,97.080605 96.617645,97.053688 96.832870,97.068985 
z"/>
<path fill="#D5FAFD" opacity="1.000000" stroke="none" 
	d="
M81.143234,167.103851 
	C81.913857,166.473846 82.671356,165.833023 83.714752,165.096344 
	C84.053246,167.354263 84.185036,169.757248 80.512695,170.090225 
	C80.146767,170.157440 79.990082,169.992905 80.033440,169.629715 
	C80.418098,168.540009 80.759399,167.813492 81.100693,167.086975 
	C81.100700,167.086975 81.130104,167.093033 81.143234,167.103851 
z"/>
<path fill="#D2FAFD" opacity="1.000000" stroke="none" 
	d="
M297.343384,292.979309 
	C298.078918,291.663727 299.195160,290.364838 300.629822,289.002930 
	C299.873566,290.291931 298.798828,291.643982 297.343384,292.979309 
z"/>
<path fill="#E0FCFB" opacity="1.000000" stroke="none" 
	d="
M186.182617,255.852875 
	C186.683014,254.025925 187.558945,252.200562 188.702927,250.171722 
	C188.166702,251.930328 187.362427,253.892380 186.182617,255.852875 
z"/>
<path fill="#DFFDFD" opacity="1.000000" stroke="none" 
	d="
M235.113251,164.218811 
	C236.722153,164.993622 238.311234,166.142273 240.072601,167.578003 
	C238.527725,166.774277 236.810577,165.683472 235.113251,164.218811 
z"/>
<path fill="#DAFBFC" opacity="1.000000" stroke="none" 
	d="
M181.215179,333.440430 
	C182.491959,333.281250 183.974091,333.351349 185.743683,333.649841 
	C184.322296,337.610535 182.928421,334.379822 181.215179,333.440430 
z"/>
<path fill="#D5FAFD" opacity="1.000000" stroke="none" 
	d="
M93.919342,99.114731 
	C93.881493,99.871338 93.500542,100.595360 93.015244,101.611153 
	C92.910889,101.902924 92.930855,101.937843 92.691925,102.008934 
	C92.287697,102.380768 92.122398,102.681511 91.957100,102.982262 
	C91.957100,102.982262 92.003014,102.996445 91.720215,103.070618 
	C90.984604,103.477028 90.531799,103.809258 90.078987,104.141495 
	C90.299820,103.301170 90.520653,102.460854 90.867638,101.312782 
	C91.854607,100.364067 92.715424,99.723106 93.919342,99.114731 
z"/>
<path fill="#DAFBFC" opacity="1.000000" stroke="none" 
	d="
M233.315918,329.934143 
	C234.695587,329.267090 236.488785,328.646637 238.651337,328.058716 
	C237.256958,328.721069 235.493210,329.350922 233.315918,329.934143 
z"/>
<path fill="#DFFDFD" opacity="1.000000" stroke="none" 
	d="
M210.854904,293.872009 
	C210.863510,293.117004 210.930542,292.411804 210.998779,291.353271 
	C211.000000,291.000000 210.994263,291.006165 210.994263,291.006165 
	C211.710678,290.984863 212.427109,290.963593 213.495392,290.886597 
	C213.847244,290.830841 213.973633,290.969971 213.896378,291.310669 
	C212.888123,292.442871 211.957123,293.234375 211.026123,294.025848 
	C211.026108,294.025848 210.913330,293.921753 210.854904,293.872009 
z"/>
<path fill="#D5FAFD" opacity="1.000000" stroke="none" 
	d="
M85.309700,163.953430 
	C85.721832,162.977264 86.520676,162.023056 87.612137,160.947479 
	C87.168640,161.875885 86.432526,162.925629 85.309700,163.953430 
z"/>
<path fill="#D5FAFD" opacity="1.000000" stroke="none" 
	d="
M106.935806,87.991287 
	C106.935806,87.991287 106.474365,88.038383 106.242828,88.025810 
	C106.717506,86.992584 107.423714,85.971924 108.574799,84.991470 
	C109.019676,85.031677 109.187675,85.217972 109.053772,85.454010 
	C108.614632,86.128998 108.309402,86.567947 108.004173,87.006889 
	C108.004173,87.006889 108.000000,87.000000 107.750870,87.074547 
	C107.313095,87.429825 107.124451,87.710556 106.935806,87.991287 
z"/>
<path fill="#D5FAFD" opacity="1.000000" stroke="none" 
	d="
M108.933777,84.940292 
	C109.624641,84.205597 110.401405,83.562302 111.568634,82.935913 
	C111.959091,82.952835 112.072342,83.076988 111.919067,83.343765 
	C110.906425,84.146347 110.047050,84.682159 109.187675,85.217972 
	C109.187675,85.217972 109.019676,85.031677 108.933777,84.940292 
z"/>
<path fill="#D5FAFD" opacity="1.000000" stroke="none" 
	d="
M98.368454,151.010223 
	C98.749931,150.320908 99.494621,149.634918 100.545113,148.888885 
	C100.144493,149.557068 99.438080,150.285309 98.368454,151.010223 
z"/>
<path fill="#E0FCFB" opacity="1.000000" stroke="none" 
	d="
M196.996872,239.002914 
	C197.502762,239.304810 198.011795,239.603806 198.520813,239.902802 
	C198.340912,240.110916 198.160980,240.319031 197.981049,240.527130 
	C197.679611,240.204636 197.378174,239.882156 197.041290,239.276703 
	C197.005829,238.993729 197.000000,239.000000 196.996872,239.002914 
z"/>
<path fill="#DFFDFD" opacity="1.000000" stroke="none" 
	d="
M211.003098,290.997101 
	C210.497833,290.694946 209.989487,290.395691 209.481140,290.096436 
	C209.660690,289.888763 209.840240,289.681091 210.019775,289.473419 
	C210.320251,289.795990 210.620712,290.118591 210.957718,290.723663 
	C210.994263,291.006165 211.000000,291.000000 211.003098,290.997101 
z"/>
<path fill="#DFFDFD" opacity="1.000000" stroke="none" 
	d="
M240.459961,175.615784 
	C240.345688,176.057724 240.066833,176.328735 239.770142,176.578552 
	C239.762222,176.585205 239.560547,176.361755 239.449219,176.245605 
	C239.730469,175.977737 240.011719,175.709869 240.459961,175.615784 
z"/>
<path fill="#DFFDFD" opacity="1.000000" stroke="none" 
	d="
M246.385956,224.458405 
	C245.943542,224.343979 245.672333,224.065048 245.422287,223.768250 
	C245.415665,223.760376 245.639221,223.558548 245.755447,223.447174 
	C246.023621,223.728607 246.291809,224.010056 246.385956,224.458405 
z"/>
<path fill="#D5FAFD" opacity="1.000000" stroke="none" 
	d="
M95.910492,97.151779 
	C95.983887,97.373703 95.780830,97.666801 95.326241,98.065598 
	C95.261154,97.855179 95.447601,97.539062 95.910492,97.151779 
z"/>
<path fill="#DAFBFC" opacity="1.000000" stroke="none" 
	d="
M264.110138,317.853210 
	C264.076691,317.642365 264.286316,317.390381 264.751465,317.120911 
	C264.883636,317.426849 264.665741,317.663086 264.110138,317.853210 
z"/>
<path fill="#D5FAFD" opacity="1.000000" stroke="none" 
	d="
M96.190994,152.876831 
	C96.116173,152.669998 96.290314,152.375381 96.713516,151.992065 
	C96.788368,152.198593 96.614151,152.493835 96.190994,152.876831 
z"/>
<path fill="#DFFDFD" opacity="1.000000" stroke="none" 
	d="
M241.140381,169.114105 
	C241.348846,169.058395 241.629745,169.259109 241.986649,169.712738 
	C241.779373,169.767288 241.496109,169.568909 241.140381,169.114105 
z"/>
<path fill="#D5FAFD" opacity="1.000000" stroke="none" 
	d="
M111.903381,82.889938 
	C112.011688,82.559357 112.214203,82.324951 112.644913,81.988968 
	C112.834595,81.854118 112.972984,81.984619 112.931664,82.273163 
	C112.679085,82.830948 112.406418,83.002708 112.072342,83.076988 
	C112.072342,83.076988 111.959091,82.952835 111.903381,82.889938 
z"/>
<path fill="#E0FCFB" opacity="1.000000" stroke="none" 
	d="
M189.221466,249.813019 
	C189.071960,249.603668 189.179413,249.225937 189.527435,248.665253 
	C189.671463,248.869736 189.574921,249.257187 189.221466,249.813019 
z"/>
<path fill="#D5FAFD" opacity="1.000000" stroke="none" 
	d="
M84.235428,164.898575 
	C84.150467,164.695969 84.300369,164.391403 84.698380,164.002853 
	C84.787750,164.211456 84.629021,164.504044 84.235428,164.898575 
z"/>
<path fill="#DFFDFD" opacity="1.000000" stroke="none" 
	d="
M234.178436,163.120636 
	C234.407181,163.036926 234.701736,163.213257 235.070129,163.644714 
	C234.844070,163.726776 234.544144,163.553726 234.178436,163.120636 
z"/>
<path fill="#D2FAFD" opacity="1.000000" stroke="none" 
	d="
M309.295166,278.913452 
	C309.201477,278.721161 309.330658,278.416107 309.699066,278.017548 
	C309.936401,278.282532 309.796295,278.574768 309.295166,278.913452 
z"/>
<path fill="#D5FAFD" opacity="1.000000" stroke="none" 
	d="
M128.134552,132.890015 
	C127.950150,132.546768 128.155090,132.304855 128.764069,132.195786 
	C128.891129,132.508270 128.676407,132.729187 128.134552,132.890015 
z"/>
<path fill="#D2FAFD" opacity="1.000000" stroke="none" 
	d="
M296.200470,293.888550 
	C296.125397,293.676147 296.295319,293.385712 296.717102,293.027191 
	C296.794495,293.242889 296.619995,293.526703 296.200470,293.888550 
z"/>
<path fill="#D2FAFD" opacity="1.000000" stroke="none" 
	d="
M295.182129,294.883362 
	C295.108368,294.667816 295.283447,294.378357 295.712677,294.022186 
	C295.788239,294.240112 295.609619,294.524780 295.182129,294.883362 
z"/>
<path fill="#D2FAFD" opacity="1.000000" stroke="none" 
	d="
M283.981995,304.816772 
	C283.919403,304.564209 284.147919,304.281036 284.647644,303.934479 
	C284.703613,304.176117 284.488342,304.481140 283.981995,304.816772 
z"/>
<path fill="#D2FAFD" opacity="1.000000" stroke="none" 
	d="
M282.041199,306.746399 
	C281.842133,306.983826 281.640350,306.983643 281.135529,306.954773 
	C281.048004,306.646057 281.263519,306.366028 281.747925,306.059998 
	C282.016846,306.033966 282.038483,306.508759 282.041199,306.746399 
z"/>
<path fill="#37BBDA" opacity="1.000000" stroke="none" 
	d="
M250.294312,231.910278 
	C251.314407,224.342911 253.109497,216.778595 253.999191,209.109238 
	C255.084885,199.750381 252.839752,190.705902 249.824631,181.480881 
	C251.874344,186.676224 254.957260,192.115997 255.772888,197.876755 
	C257.360870,209.092453 255.392792,220.199860 251.761215,230.945251 
	C251.630692,231.331467 251.042740,231.563080 250.294312,231.910278 
z"/>
<path fill="#37BBDA" opacity="1.000000" stroke="none" 
	d="
M111.919067,83.343765 
	C112.406418,83.002708 112.679085,82.830948 112.998077,82.341248 
	C115.330734,80.662132 117.555664,79.203476 119.978584,77.481155 
	C120.564926,77.126717 120.953262,77.035927 121.640106,76.924721 
	C119.189934,82.381401 115.984184,87.264877 108.411606,87.006531 
	C108.309402,86.567947 108.614632,86.128998 109.053772,85.454010 
	C110.047050,84.682159 110.906425,84.146347 111.919067,83.343765 
z"/>
<path fill="#37BBDA" opacity="1.000000" stroke="none" 
	d="
M244.141663,248.792358 
	C245.668564,243.403275 247.541672,237.919113 249.681015,232.185120 
	C250.390121,238.259567 248.659760,243.876007 244.141663,248.792358 
z"/>
<path fill="#37BBDA" opacity="1.000000" stroke="none" 
	d="
M237.230148,262.901489 
	C238.626770,258.919922 240.395004,254.939575 242.236053,250.605682 
	C242.654404,249.852280 242.999954,249.452423 243.587875,248.946228 
	C244.063721,254.550446 241.203384,258.890747 237.230148,262.901489 
z"/>
<path fill="#48BCD8" opacity="1.000000" stroke="none" 
	d="
M185.030487,312.854187 
	C188.821701,310.194427 193.016357,307.595245 197.553375,304.934692 
	C195.545090,310.348358 190.247177,311.256012 185.030487,312.854187 
z"/>
<path fill="#37BBDA" opacity="1.000000" stroke="none" 
	d="
M223.184967,282.875275 
	C225.341782,279.334351 227.865173,275.816803 230.679062,272.133118 
	C231.277008,277.497375 228.097168,280.661438 223.184967,282.875275 
z"/>
<path fill="#37BBDA" opacity="1.000000" stroke="none" 
	d="
M112.736984,139.099930 
	C110.355667,141.117706 107.576820,143.081726 104.456421,145.094162 
	C105.144226,140.800583 108.157516,139.135086 112.736984,139.099930 
z"/>
<path fill="#37BBDA" opacity="1.000000" stroke="none" 
	d="
M79.263283,120.929916 
	C80.621758,118.264938 82.339798,115.594742 84.373741,112.841560 
	C85.814659,117.226578 82.793610,119.122086 79.263283,120.929916 
z"/>
<path fill="#37BBDA" opacity="1.000000" stroke="none" 
	d="
M210.896667,294.299683 
	C211.957123,293.234375 212.888123,292.442871 213.961121,291.378784 
	C214.894409,290.492828 215.685684,289.879456 216.765747,289.177979 
	C216.378708,293.407440 213.641647,295.785065 209.263275,296.935791 
	C209.514877,296.125214 210.141037,295.349396 210.896667,294.299683 
z"/>
<path fill="#37BBDA" opacity="1.000000" stroke="none" 
	d="
M77.735550,171.075623 
	C76.637527,173.317703 75.175407,175.567184 73.409973,177.955734 
	C72.524872,174.539017 74.214905,172.365021 77.735550,171.075623 
z"/>
<path fill="#37BBDA" opacity="1.000000" stroke="none" 
	d="
M72.232773,133.895447 
	C73.020348,131.354614 74.186195,128.823792 75.640732,126.105270 
	C76.054230,129.091553 76.372803,132.346054 72.232773,133.895447 
z"/>
<path fill="#37BBDA" opacity="1.000000" stroke="none" 
	d="
M217.456207,289.045258 
	C218.807648,287.067505 220.524277,285.079895 222.545792,282.968750 
	C223.199829,286.554352 221.016876,288.206207 217.456207,289.045258 
z"/>
<path fill="#37BBDA" opacity="1.000000" stroke="none" 
	d="
M122.309662,76.958359 
	C124.012596,75.579163 126.105896,74.223434 128.543030,72.785706 
	C128.746185,76.908676 125.108612,76.056595 122.309662,76.958359 
z"/>
<path fill="#37BBDA" opacity="1.000000" stroke="none" 
	d="
M247.956360,176.684464 
	C246.616714,175.305984 245.311462,173.521835 243.950897,171.403625 
	C247.312561,171.192917 248.375610,173.166748 247.956360,176.684464 
z"/>
<path fill="#48BCD8" opacity="1.000000" stroke="none" 
	d="
M178.297119,315.947754 
	C179.708084,314.944763 181.511215,313.982880 183.665222,313.007385 
	C182.240494,313.992126 180.464890,314.990479 178.297119,315.947754 
z"/>
<path fill="#37BBDA" opacity="1.000000" stroke="none" 
	d="
M76.274666,125.919098 
	C76.711143,124.363899 77.526253,122.796310 78.636642,121.074509 
	C78.172379,122.582436 77.412834,124.244568 76.274666,125.919098 
z"/>
<path fill="#37BBDA" opacity="1.000000" stroke="none" 
	d="
M72.763084,178.118561 
	C72.857460,178.881241 72.580170,179.654297 72.258606,180.737595 
	C72.214317,181.047852 71.969933,181.377502 71.914230,181.574493 
	C71.446701,182.178940 71.034866,182.586380 70.375809,183.156342 
	C70.882874,181.588898 71.637154,179.858917 72.763084,178.118561 
z"/>
<path fill="#37BBDA" opacity="1.000000" stroke="none" 
	d="
M235.151886,264.517578 
	C235.620514,263.823883 236.006912,263.451233 236.643585,262.979126 
	C236.122589,264.544739 235.351334,266.209839 234.211334,267.879944 
	C234.251602,266.869507 234.660629,265.854095 235.151886,264.517578 
z"/>
<path fill="#37BBDA" opacity="1.000000" stroke="none" 
	d="
M69.219246,140.852173 
	C69.335060,139.312576 69.849335,137.754517 70.627563,135.950378 
	C70.466911,137.414108 70.042313,139.123917 69.219246,140.852173 
z"/>
<path fill="#37BBDA" opacity="1.000000" stroke="none" 
	d="
M231.327301,271.950470 
	C231.745071,270.712189 232.528809,269.452545 233.596558,268.036469 
	C233.151474,269.229736 232.422379,270.579407 231.327301,271.950470 
z"/>
<path fill="#37BBDA" opacity="1.000000" stroke="none" 
	d="
M86.199539,110.868729 
	C86.650856,109.614517 87.477341,108.382454 88.605309,107.026199 
	C88.129433,108.231628 87.352074,109.561256 86.199539,110.868729 
z"/>
<path fill="#37BBDA" opacity="1.000000" stroke="none" 
	d="
M89.998917,104.352997 
	C90.531799,103.809258 90.984604,103.477028 91.704834,103.052086 
	C91.186729,104.275078 90.401184,105.590790 89.246368,106.906876 
	C88.950058,106.508965 89.023010,106.110672 89.158646,105.413834 
	C89.523064,105.019356 89.755562,104.835754 89.998917,104.352997 
z"/>
<path fill="#37BBDA" opacity="1.000000" stroke="none" 
	d="
M80.731201,167.087769 
	C80.759399,167.813492 80.418098,168.540009 79.953949,169.548569 
	C79.412956,170.178604 78.994812,170.526596 78.325058,170.981018 
	C78.836197,169.754486 79.598946,168.421539 80.731201,167.087769 
z"/>
<path fill="#37BBDA" opacity="1.000000" stroke="none" 
	d="
M116.689850,137.041473 
	C115.988136,137.760025 114.897820,138.445572 113.480164,139.159088 
	C114.202301,138.460861 115.251770,137.734665 116.689850,137.041473 
z"/>
<path fill="#48BCD8" opacity="1.000000" stroke="none" 
	d="
M256.751343,320.116943 
	C256.007507,320.808746 254.874359,321.446899 253.406006,322.096466 
	C254.167877,321.426361 255.264969,320.744812 256.751343,320.116943 
z"/>
<path fill="#48BCD8" opacity="1.000000" stroke="none" 
	d="
M252.702545,322.039734 
	C251.929367,322.703308 250.778214,323.329926 249.287659,323.947510 
	C250.073685,323.293274 251.199142,322.648010 252.702545,322.039734 
z"/>
<path fill="#48BCD8" opacity="1.000000" stroke="none" 
	d="
M206.315674,298.983032 
	C206.716324,298.291534 207.482147,297.615112 208.558334,296.888672 
	C208.139420,297.558472 207.410126,298.278320 206.315674,298.983032 
z"/>
<path fill="#48BCD8" opacity="1.000000" stroke="none" 
	d="
M198.233276,304.916534 
	C198.692520,304.246124 199.489197,303.595612 200.600845,302.899109 
	C200.134109,303.547577 199.352417,304.242004 198.233276,304.916534 
z"/>
<path fill="#48BCD8" opacity="1.000000" stroke="none" 
	d="
M202.281799,301.977753 
	C202.387375,301.590240 202.809464,301.202881 203.526031,300.782806 
	C203.413116,301.159363 203.005707,301.568634 202.281799,301.977753 
z"/>
<path fill="#37BBDA" opacity="1.000000" stroke="none" 
	d="
M85.035576,112.722198 
	C84.911613,112.244316 85.101562,111.682861 85.573227,110.994980 
	C85.686455,111.458580 85.517975,112.048607 85.035576,112.722198 
z"/>
<path fill="#48BCD8" opacity="1.000000" stroke="none" 
	d="
M247.102371,324.221313 
	C246.895981,324.599518 246.335526,324.908508 245.449799,325.221527 
	C245.665771,324.867706 246.207047,324.509918 247.102371,324.221313 
z"/>
<path fill="#48BCD8" opacity="1.000000" stroke="none" 
	d="
M244.830872,325.146545 
	C244.649872,325.499695 244.153656,325.796356 243.353592,326.087280 
	C243.538391,325.751099 244.027023,325.420563 244.830872,325.146545 
z"/>
<path fill="#48BCD8" opacity="1.000000" stroke="none" 
	d="
M242.764664,326.049622 
	C242.571609,326.366241 242.083328,326.659760 241.300690,326.909973 
	C241.494034,326.586670 241.981720,326.306610 242.764664,326.049622 
z"/>
<path fill="#37BBDA" opacity="1.000000" stroke="none" 
	d="
M249.895081,180.810394 
	C249.530228,180.643265 249.198242,180.155212 248.867477,179.357071 
	C249.221786,179.527817 249.574875,180.008652 249.895081,180.810394 
z"/>
<path fill="#37BBDA" opacity="1.000000" stroke="none" 
	d="
M248.928955,178.785416 
	C248.575165,178.620178 248.243134,178.136185 247.901031,177.345856 
	C248.244217,177.515244 248.597458,177.990936 248.928955,178.785416 
z"/>
<path fill="#37BBDA" opacity="1.000000" stroke="none" 
	d="
M102.103973,92.813316 
	C102.020157,92.581825 102.198769,92.285660 102.638458,91.920227 
	C102.721832,92.150185 102.544113,92.449409 102.103973,92.813316 
z"/>
<path fill="#37BBDA" opacity="1.000000" stroke="none" 
	d="
M103.113625,91.828766 
	C103.036629,91.604309 103.219322,91.308723 103.662743,90.941757 
	C103.740082,91.166130 103.556694,91.461884 103.113625,91.828766 
z"/>
<path fill="#37BBDA" opacity="1.000000" stroke="none" 
	d="
M92.197807,102.885559 
	C92.122398,102.681511 92.287697,102.380768 92.703979,101.999039 
	C92.782806,102.208321 92.610664,102.498589 92.197807,102.885559 
z"/>
<path fill="#37BBDA" opacity="1.000000" stroke="none" 
	d="
M104.129745,90.845139 
	C104.055496,90.627762 104.237595,90.332779 104.675919,89.960007 
	C104.750130,90.177322 104.568108,90.472420 104.129745,90.845139 
z"/>
<path fill="#37BBDA" opacity="1.000000" stroke="none" 
	d="
M105.139191,89.854660 
	C105.079521,89.644386 105.274742,89.357376 105.730240,88.998993 
	C105.791702,89.211067 105.592896,89.494499 105.139191,89.854660 
z"/>
<path fill="#37BBDA" opacity="1.000000" stroke="none" 
	d="
M69.620506,184.116028 
	C69.865845,184.345184 69.754295,184.635590 69.257599,184.960358 
	C69.061783,184.735046 69.192169,184.462570 69.620506,184.116028 
z"/>
<path fill="#37BBDA" opacity="1.000000" stroke="none" 
	d="
M107.177162,87.905037 
	C107.124451,87.710556 107.313095,87.429825 107.753822,87.076965 
	C107.810104,87.276146 107.614311,87.547462 107.177162,87.905037 
z"/>
<path fill="#37BBDA" opacity="1.000000" stroke="none" 
	d="
M89.836357,157.133102 
	C89.909302,157.345078 89.732117,157.638550 89.300964,158.008209 
	C89.226738,157.794464 89.406487,157.504532 89.836357,157.133102 
z"/>
<path fill="#48BCD8" opacity="1.000000" stroke="none" 
	d="
M205.110413,299.831757 
	C205.054337,299.610687 205.257797,299.335571 205.721436,299.004608 
	C205.777710,299.225098 205.573822,299.501404 205.110413,299.831757 
z"/>
<path fill="#48BCD8" opacity="1.000000" stroke="none" 
	d="
M204.070709,300.765900 
	C203.994659,300.525299 204.188965,300.250824 204.636414,299.909546 
	C204.706711,300.139191 204.523895,300.435608 204.070709,300.765900 
z"/>
<path fill="#48BCD8" opacity="1.000000" stroke="none" 
	d="
M201.127914,302.848389 
	C201.067230,302.622437 201.263916,302.339539 201.724091,302.010193 
	C201.786819,302.239655 201.586044,302.515533 201.127914,302.848389 
z"/>
<path fill="#37BBDA" opacity="1.000000" stroke="none" 
	d="
M71.334320,134.896301 
	C71.230812,134.707855 71.334175,134.390594 71.678314,133.982758 
	C71.920433,134.238937 71.794472,134.530716 71.334320,134.896301 
z"/>
</svg>